<?xml version="1.0" encoding="UTF-8"?><svg id="Layer_1" xmlns="http://www.w3.org/2000/svg" viewBox="0 0 500 500"><defs><style>.cls-1,.cls-2{fill:currentColor}</style></defs><path class="cls-1" d="m80.97,244.3v-36.37c-19.31,1.36-34.71,16.96-35.74,36.37h35.74Z"/><path class="cls-1" d="m85.79,244.3h36.43c-1.03-19.64-16.77-35.4-36.43-36.43v36.43h0Z"/><path class="cls-1" d="m80.97,249.15h-35.68c1.36,19.1,16.6,34.34,35.68,35.68v-35.68Z"/><path class="cls-1" d="m85.79,249.15v35.74c19.42-1.03,35.01-16.43,36.37-35.74h-36.37Z"/><path class="cls-2" d="m445.92,222.72h1.34v-3h.99l1.83,3h1.4l-1.9-3.1c.5-.06.91-.24,1.25-.56.32-.32.5-.8.5-1.44,0-.71-.22-1.25-.63-1.64-.41-.39-1.08-.56-1.96-.56h-2.82v7.31Zm1.36-6.19h.99c.22,0,.41,0,.63.02s.39.04.56.13c.17.06.3.17.41.3s.15.32.15.56-.04.43-.15.56-.24.24-.41.3c-.17.06-.34.11-.56.13s-.41.02-.63.02h-.99v-2.03Zm-4.79,5.07c.34.78.8,1.44,1.38,2.03.58.58,1.25,1.03,2.03,1.38.78.34,1.6.52,2.48.52s1.7-.17,2.48-.52,1.44-.8,2.03-1.38c.58-.58,1.03-1.25,1.38-2.03s.52-1.6.52-2.48-.17-1.7-.52-2.48c-.34-.78-.8-1.44-1.38-2.03-.58-.58-1.25-1.03-2.03-1.38-.78-.34-1.6-.52-2.48-.52s-1.7.17-2.48.52-1.44.8-2.03,1.38c-.58.58-1.03,1.25-1.38,2.03-.34.78-.52,1.6-.52,2.48.02.86.17,1.7.52,2.48Zm1.03-4.55c.28-.65.65-1.21,1.12-1.68.47-.47,1.03-.86,1.68-1.12.65-.28,1.31-.41,2.05-.41s1.4.13,2.05.41c.65.28,1.21.65,1.68,1.12s.86,1.03,1.12,1.68c.28.65.41,1.31.41,2.05s-.13,1.4-.41,2.05c-.28.65-.65,1.21-1.12,1.68-.47.47-1.03.86-1.68,1.12-.65.28-1.31.41-2.05.41s-1.4-.13-2.05-.41c-.65-.28-1.21-.65-1.68-1.12-.47-.47-.86-1.03-1.12-1.68-.28-.65-.41-1.31-.41-2.05s.15-1.4.41-2.05Z"/><path class="cls-2" d="m190.17,223.95v9.03c-3.97-6.94-11.02-11.45-20.26-11.45-14.66,0-24.9,11.12-24.9,26.21s10.24,26.1,24.9,26.1c9.25,0,16.3-4.4,20.26-11.34v29.08c0,.99.67,1.66,1.66,1.66h2.76c.99,0,1.66-.67,1.66-1.66v-67.64c0-.99-.67-1.66-1.66-1.66h-2.76c-1.01,0-1.66.67-1.66,1.66Zm-19.62,44.06c-11.79,0-19.72-8.36-19.72-20.26s7.93-20.48,19.72-20.48,19.59,8.6,19.59,20.48c0,11.88-7.7,20.26-19.59,20.26Z"/><path class="cls-2" d="m247.9,223.95v28.97c0,10.02-6.83,15.63-15.63,15.63s-15.63-5.63-15.63-15.63v-28.97c0-.99-.67-1.66-1.66-1.66h-2.76c-.99,0-1.66.67-1.66,1.66v29.73c0,13.88,9.92,20.16,20.37,20.16,6.73,0,13.21-2.65,16.96-8.36v5.84c0,.99.67,1.66,1.66,1.66h2.76c.99,0,1.66-.67,1.66-1.66v-47.38c0-.99-.67-1.66-1.66-1.66h-2.76c-.99.02-1.66.69-1.66,1.68Z"/><path class="cls-2" d="m312.11,223.95v8.92c-3.97-6.94-11.02-11.34-20.26-11.34-14.66,0-24.9,10.91-24.9,26.1s10.24,26.21,24.9,26.21c9.25,0,16.3-4.51,20.26-11.45v8.92c0,.99.67,1.66,1.66,1.66h2.76c.99,0,1.66-.67,1.66-1.66v-47.38c0-.99-.67-1.66-1.66-1.66h-2.76c-.99,0-1.66.67-1.66,1.66Zm-19.62,44.06c-11.79,0-19.72-8.47-19.72-20.37s7.93-20.37,19.72-20.37,19.59,8.47,19.59,20.37-7.67,20.37-19.59,20.37Z"/><path class="cls-2" d="m338.54,231.65v-7.72c0-.99-.67-1.66-1.66-1.66h-2.76c-.99,0-1.66.67-1.66,1.66v47.38c0,.99.67,1.66,1.66,1.66h2.76c.99,0,1.66-.67,1.66-1.66v-27.01c0-11.02,7.93-16.19,16.3-16.96.99-.11,1.55-.78,1.55-1.77v-2.41c0-1.1-.56-1.66-1.66-1.55-6.7.58-12.76,3.88-16.19,10.05Z"/><path class="cls-2" d="m390.11,225.48v-1.55c0-.99-.67-1.66-1.66-1.66h-11.02v-13.77c0-.99-.67-1.66-1.66-1.66h-2.78c-.99,0-1.66.67-1.66,1.66v13.77h-5.63c-.99,0-1.66.67-1.66,1.66v1.55c0,.99.67,1.66,1.66,1.66h5.63v34.58c0,7.16,4.4,11.23,11.34,11.23h5.17c.99,0,1.66-.67,1.66-1.66v-1.77c0-.99-.67-1.66-1.66-1.66h-3.3c-3.86,0-7.16-1.77-7.16-6.94v-33.82h11.02c1.06.04,1.7-.63,1.7-1.62Z"/><path class="cls-2" d="m422.94,273.96c15.2,0,25.54-11.23,25.54-26.32s-10.35-26.21-25.54-26.21-25.65,11.02-25.65,26.21,10.45,26.32,25.65,26.32Zm0-5.95c-11.68,0-19.59-8.71-19.59-20.37s7.93-20.37,19.59-20.37,19.38,8.71,19.38,20.37c0,11.68-7.7,20.37-19.38,20.37Z"/></svg>