<svg width="500" height="119" xmlns="http://www.w3.org/2000/svg" xmlns:xlink="http://www.w3.org/1999/xlink" xml:space="preserve" overflow="hidden"><g transform="translate(-390 -316)"><path d="M80.9428 244.218 80.9428 207.86C61.6393 209.22 46.2445 224.814 45.2148 244.218L80.9428 244.218Z" transform="matrix(1.00034 0 0 1 390 128.393)"/><path d="M85.7612 244.218 122.179 244.218C121.149 224.585 105.415 208.83 85.7612 207.8L85.7612 244.218 85.7612 244.218Z" transform="matrix(1.00034 0 0 1 390 128.393)"/><path d="M80.9428 249.066 45.2748 249.066C46.6343 268.16 61.8692 283.395 80.9428 284.734L80.9428 249.066Z" transform="matrix(1.00034 0 0 1 390 128.393)"/><path d="M85.7612 249.066 85.7612 284.794C105.175 283.765 120.759 268.37 122.119 249.066L85.7612 249.066Z" transform="matrix(1.00034 0 0 1 390 128.393)"/><path d="M445.77 222.645 447.11 222.645 447.11 219.646 448.099 219.646 449.929 222.645 451.328 222.645 449.429 219.546C449.929 219.486 450.339 219.306 450.678 218.986 450.998 218.667 451.178 218.187 451.178 217.547 451.178 216.837 450.958 216.297 450.549 215.907 450.139 215.518 449.469 215.348 448.589 215.348L445.77 215.348 445.77 222.655ZM447.13 216.457 448.119 216.457C448.339 216.457 448.529 216.457 448.749 216.477 448.969 216.497 449.139 216.517 449.309 216.607 449.479 216.667 449.609 216.777 449.719 216.907 449.829 217.037 449.869 217.227 449.869 217.467 449.869 217.707 449.829 217.897 449.719 218.027 449.609 218.157 449.479 218.267 449.309 218.327 449.139 218.387 448.969 218.437 448.749 218.457 448.529 218.477 448.339 218.477 448.119 218.477L447.13 218.477 447.13 216.447ZM442.341 221.526C442.681 222.305 443.141 222.965 443.721 223.555 444.301 224.135 444.97 224.585 445.75 224.934 446.53 225.274 447.35 225.454 448.229 225.454 449.109 225.454 449.929 225.284 450.708 224.934 451.488 224.585 452.148 224.135 452.738 223.555 453.318 222.975 453.767 222.305 454.117 221.526 454.467 220.746 454.637 219.926 454.637 219.046 454.637 218.167 454.467 217.347 454.117 216.567 453.777 215.787 453.318 215.128 452.738 214.538 452.158 213.958 451.488 213.508 450.708 213.158 449.929 212.818 449.109 212.639 448.229 212.639 447.35 212.639 446.53 212.808 445.75 213.158 444.97 213.508 444.311 213.958 443.721 214.538 443.141 215.118 442.691 215.787 442.341 216.567 442.001 217.347 441.821 218.167 441.821 219.046 441.841 219.906 441.991 220.746 442.341 221.526ZM443.371 216.977C443.651 216.327 444.021 215.767 444.491 215.298 444.96 214.828 445.52 214.438 446.17 214.178 446.82 213.898 447.48 213.768 448.219 213.768 448.959 213.768 449.619 213.898 450.269 214.178 450.918 214.458 451.478 214.828 451.948 215.298 452.418 215.767 452.808 216.327 453.068 216.977 453.348 217.627 453.478 218.287 453.478 219.026 453.478 219.766 453.348 220.426 453.068 221.076 452.788 221.725 452.418 222.285 451.948 222.755 451.478 223.225 450.918 223.615 450.269 223.875 449.619 224.155 448.959 224.285 448.219 224.285 447.48 224.285 446.82 224.155 446.17 223.875 445.52 223.595 444.96 223.225 444.491 222.755 444.021 222.285 443.631 221.725 443.371 221.076 443.091 220.426 442.961 219.766 442.961 219.026 442.961 218.287 443.111 217.627 443.371 216.977Z" transform="matrix(1.00034 0 0 1 390 128.393)"/><path d="M190.106 223.875 190.106 232.902C186.137 225.964 179.09 221.456 169.853 221.456 155.198 221.456 144.961 232.572 144.961 247.657 144.961 262.742 155.198 273.748 169.853 273.748 179.1 273.748 186.147 269.349 190.106 262.412L190.106 291.482C190.106 292.472 190.776 293.141 191.766 293.141L194.525 293.141C195.514 293.141 196.184 292.472 196.184 291.482L196.184 223.865C196.184 222.875 195.514 222.205 194.525 222.205L191.766 222.205C190.756 222.205 190.106 222.875 190.106 223.865ZM170.493 267.92C158.707 267.92 150.779 259.563 150.779 247.667 150.779 235.771 158.707 227.194 170.493 227.194 182.279 227.194 190.076 235.791 190.076 247.667 190.076 259.543 182.379 267.92 170.493 267.92Z" transform="matrix(1.00034 0 0 1 390 128.393)"/><path d="M247.817 223.875 247.817 252.835C247.817 262.852 240.989 268.46 232.192 268.46 223.395 268.46 216.567 262.832 216.567 252.835L216.567 223.875C216.567 222.885 215.897 222.215 214.908 222.215L212.149 222.215C211.159 222.215 210.489 222.885 210.489 223.875L210.489 253.595C210.489 267.47 220.406 273.748 230.852 273.748 237.58 273.748 244.058 271.099 247.807 265.391L247.807 271.229C247.807 272.218 248.476 272.888 249.466 272.888L252.225 272.888C253.215 272.888 253.885 272.218 253.885 271.229L253.885 223.865C253.885 222.875 253.215 222.205 252.225 222.205L249.466 222.205C248.476 222.225 247.807 222.895 247.807 223.885Z" transform="matrix(1.00034 0 0 1 390 128.393)"/><path d="M312.005 223.875 312.005 232.792C308.036 225.854 300.989 221.456 291.752 221.456 277.097 221.456 266.86 232.362 266.86 247.547 266.86 262.732 277.097 273.748 291.752 273.748 300.999 273.748 308.046 269.239 312.005 262.302L312.005 271.219C312.005 272.208 312.675 272.878 313.665 272.878L316.424 272.878C317.413 272.878 318.083 272.208 318.083 271.219L318.083 223.855C318.083 222.865 317.413 222.195 316.424 222.195L313.665 222.195C312.675 222.195 312.005 222.865 312.005 223.855ZM292.392 267.92C280.606 267.92 272.678 259.453 272.678 247.557 272.678 235.661 280.606 227.194 292.392 227.194 304.178 227.194 311.975 235.661 311.975 247.557 311.975 259.453 304.308 267.92 292.392 267.92Z" transform="matrix(1.00034 0 0 1 390 128.393)"/><path d="M338.426 231.572 338.426 223.855C338.426 222.865 337.756 222.195 336.767 222.195L334.008 222.195C333.018 222.195 332.348 222.865 332.348 223.855L332.348 271.219C332.348 272.208 333.018 272.878 334.008 272.878L336.767 272.878C337.756 272.878 338.426 272.208 338.426 271.219L338.426 244.218C338.426 233.202 346.354 228.033 354.721 227.264 355.71 227.154 356.27 226.484 356.27 225.494L356.27 223.085C356.27 221.985 355.71 221.426 354.611 221.536 347.913 222.115 341.855 225.414 338.426 231.582Z" transform="matrix(1.00034 0 0 1 390 128.393)"/><path d="M389.979 225.404 389.979 223.855C389.979 222.865 389.309 222.195 388.319 222.195L377.303 222.195 377.303 208.43C377.303 207.44 376.633 206.77 375.644 206.77L372.865 206.77C371.875 206.77 371.205 207.44 371.205 208.43L371.205 222.195 365.577 222.195C364.587 222.195 363.918 222.865 363.918 223.855L363.918 225.404C363.918 226.394 364.587 227.064 365.577 227.064L371.205 227.064 371.205 261.632C371.205 268.79 375.604 272.858 382.541 272.858L387.71 272.858C388.699 272.858 389.369 272.189 389.369 271.199L389.369 269.429C389.369 268.44 388.699 267.77 387.71 267.77L384.411 267.77C380.552 267.77 377.253 266.001 377.253 260.832L377.253 227.024 388.269 227.024C389.329 227.064 389.969 226.394 389.969 225.404Z" transform="matrix(1.00034 0 0 1 390 128.393)"/><path d="M422.798 273.868C437.993 273.868 448.329 262.642 448.329 247.557 448.329 232.472 437.983 221.356 422.798 221.356 407.613 221.356 397.156 232.372 397.156 247.557 397.156 262.742 407.603 273.868 422.798 273.868ZM422.798 267.92C411.122 267.92 403.214 259.213 403.214 247.557 403.214 235.901 411.142 227.194 422.798 227.194 434.454 227.194 442.171 235.901 442.171 247.557 442.171 259.233 434.474 267.92 422.798 267.92Z" transform="matrix(1.00034 0 0 1 390 128.393)"/></g></svg>